HIERARCHY
ROOT Hips
{
	OFFSET -3.958830 18.904000 13.208200
	CHANNELS 6 Xposition Yposition Zposition Zrotation Yrotation Xrotation 
	JOINT LHipJoint
	{
		OFFSET 0.000000 0.000000 0.000000
		CHANNELS 3 Zrotation Yrotation Xrotation
		JOINT LeftUpLeg
		{
			OFFSET 1.800000 -1.400000 0.085000
			CHANNELS 3 Zrotation Yrotation Xrotation
			JOINT LeftLeg
			{
				OFFSET 2.215000 -6.000000 0.000000
				CHANNELS 3 Zrotation Yrotation Xrotation
				JOINT LeftFoot
				{
					OFFSET 2.500000 -6.900000 0.000000
					CHANNELS 3 Zrotation Yrotation Xrotation
					JOINT LeftToeBase
					{
						OFFSET 0.200000 -0.500000 1.950000
						CHANNELS 3 Zrotation Yrotation Xrotation
						End Site
						{
							OFFSET 0.000000 0.000000 0.000000
						}
					}
				}
			}
		}
	}
	JOINT RHipJoint
	{
		OFFSET 0.000000 0.000000 0.000000
		CHANNELS 3 Zrotation Yrotation Xrotation
		JOINT RightUpLeg
		{
			OFFSET -1.800000 -1.400000 0.085000
			CHANNELS 3 Zrotation Yrotation Xrotation
			JOINT RightLeg
			{
				OFFSET -2.215000 -6.000000 0.000000
				CHANNELS 3 Zrotation Yrotation Xrotation
				JOINT RightFoot
				{
					OFFSET -2.500000 -6.900000 0.000000
					CHANNELS 3 Zrotation Yrotation Xrotation
					JOINT RightToeBase
					{
						OFFSET -0.200000 -0.500000 1.950000
						CHANNELS 3 Zrotation Yrotation Xrotation
						End Site
						{
							OFFSET 0.000000 0.000000 0.000000
						}
					}
				}
			}
		}
	}
	JOINT LowerBack
	{
		OFFSET 0.000000 0.000000 0.000000
		CHANNELS 3 Zrotation Yrotation Xrotation
		JOINT Spine
		{
			OFFSET -0.087000 1.940000 -0.288900
			CHANNELS 3 Zrotation Yrotation Xrotation
			JOINT Spine1
			{
				OFFSET 0.000000 1.950000 0.060000
				CHANNELS 3 Zrotation Yrotation Xrotation
				JOINT Neck
				{
					OFFSET 0.000000 0.000000 0.000000
					CHANNELS 3 Zrotation Yrotation Xrotation
					JOINT Neck1
					{
						OFFSET 0.000000 1.600000 0.340000
						CHANNELS 3 Zrotation Yrotation Xrotation
						JOINT Head
						{
							OFFSET 0.000000 1.667000 -0.240000
							CHANNELS 3 Zrotation Yrotation Xrotation
							End Site
							{
								OFFSET 0.000000 0.000000 0.000000
							}
						}
					}
				}
				JOINT LeftShoulder
				{
					OFFSET 0.000000 0.000000 0.000000
					CHANNELS 3 Zrotation Yrotation Xrotation
					JOINT LeftArm
					{
						OFFSET 2.700000 1.550000 -0.730000
						CHANNELS 3 Zrotation Yrotation Xrotation
						JOINT LeftForeArm
						{
							OFFSET 5.450000 0.000000 0.000000
							CHANNELS 3 Zrotation Yrotation Xrotation
							JOINT LeftHand
							{
								OFFSET 3.450000 0.000000 0.000000
								CHANNELS 3 Zrotation Yrotation Xrotation
								JOINT LeftHandIndex1
								{
									OFFSET 0.750000 0.000000 0.000000
									CHANNELS 3 Zrotation Yrotation Xrotation
									End Site
									{
										OFFSET 0.000000 0.000000 0.000000
									}
								}
							}
						}
					}
				}
				JOINT RightShoulder
				{
					OFFSET 0.000000 0.000000 0.000000
					CHANNELS 3 Zrotation Yrotation Xrotation
					JOINT RightArm
					{
						OFFSET -2.700000 1.550000 -0.730000
						CHANNELS 3 Zrotation Yrotation Xrotation
						JOINT RightForeArm
						{
							OFFSET -5.450000 0.000000 0.000000
							CHANNELS 3 Zrotation Yrotation Xrotation
							JOINT RightHand
							{
								OFFSET -3.450000 0.000000 0.000000
								CHANNELS 3 Zrotation Yrotation Xrotation
								JOINT RightHandIndex1
								{
									OFFSET -0.750000 0.000000 0.000000
									CHANNELS 3 Zrotation Yrotation Xrotation
									End Site
									{
										OFFSET 0.000000 0.000000 0.000000
									}
								}
							}
						}
					}
				}
			}
		}
	}
}
MOTION
Frames: 8
Frame Time: 0.016667
-1.324480 18.083190 -3.551620 -9.900085 -9.745435 6.270618 -14.718527 13.407921 2.766328 -1.083262 -0.670355 -7.879864 1.968928 3.890872 15.479167 -0.061971 3.618681 3.615016 -0.084770 -0.409730 -0.035820 18.487566 -12.903486 1.407917 -23.984777 1.829391 -6.177306 -8.063771 -4.844171 37.486479 -0.331684 -6.453059 2.230788 -0.236690 0.530850 0.207950 -4.356293 0.672622 -6.245363 11.805751 5.282811 -0.297658 2.306040 4.246080 4.263718 1.028644 -2.715123 -9.544587 -5.562124 2.233467 32.948626 -2.727740 2.197900 9.387860 -27.384370 -10.166037 4.514596 -61.321546 -1.787726 -1.173742 1.023596 -0.936884 -0.171582 -4.158023 2.940435 0.050340 0.368810 -0.308360 0.167080 25.615326 14.334399 7.675479 50.328458 0.916808 -1.473937 -2.616086 -3.054101 0.628528 2.717845 -1.453852 -0.169360 0.036620 0.062620 -0.009790 
-1.326030 17.966740 -3.501350 -10.560270 -9.984090 7.024337 -14.693703 13.517336 2.752102 -0.705693 -0.738464 -8.489712 2.191829 3.889637 16.242652 -0.092462 3.670301 3.589698 -0.088120 -0.422290 -0.053780 18.513303 -12.879685 1.405697 -23.096150 1.903589 -8.990925 -10.047604 -4.009106 40.248057 -0.362928 -6.591717 2.168947 -0.233390 0.550010 0.211050 -4.417566 0.507075 -6.239716 13.121141 4.382689 0.270016 1.643622 3.553404 2.609599 0.998291 -2.913957 -8.565197 -5.770744 2.991847 31.826183 -1.845870 2.353450 8.850520 -26.244282 -6.875821 3.441619 -61.878269 -1.423457 -1.947240 2.802999 -2.714043 -0.478589 -4.176496 2.924351 0.066130 0.370720 -0.321330 0.169170 24.216063 10.923141 6.266265 51.095973 0.948612 -2.219003 -4.078891 -1.633076 0.423162 2.698380 -1.445536 -0.185330 0.043960 0.081650 -0.014300 
-1.332410 17.888330 -3.446020 -11.139315 -10.178130 7.765806 -14.692536 13.633084 2.757862 -0.504078 -0.785274 -8.917223 2.394991 3.896595 16.951091 -0.120247 3.696352 3.557740 -0.055580 -0.401500 -0.001180 18.516110 -12.793790 1.461006 -21.555129 1.994829 -11.694485 -11.781336 -3.126465 42.467656 -0.421541 -6.663280 2.127122 -0.223490 0.501830 0.202690 -4.412449 0.256004 -6.294010 14.164891 3.620513 1.110492 1.226597 3.001831 1.229237 1.152539 -3.039548 -8.006015 -6.025685 3.544540 31.655226 -1.747240 3.010920 7.376040 -24.307248 -3.980329 2.693022 -62.405961 -1.083932 -2.948583 3.134765 -5.832338 -0.918997 -4.131860 2.884754 0.119980 0.330950 -0.286520 0.155810 21.774800 7.900413 5.149828 52.595459 0.963781 -3.200175 -5.669300 0.381698 0.143759 2.684465 -1.417949 -0.192070 0.045970 0.066740 -0.044390 
-1.349810 17.843280 -3.406880 -11.290223 -9.352222 8.698317 -14.747402 13.742009 2.753705 0.017460 -0.888067 -9.831680 1.848818 4.066652 17.220593 -0.135201 3.705248 3.540215 -0.040830 -0.375160 0.027560 18.480471 -12.597546 1.563353 -19.285173 2.051963 -14.540433 -12.836212 -2.630065 45.413827 -0.504081 -6.897054 2.049063 -0.212600 0.480630 0.200710 -4.291509 -0.172350 -6.378105 14.182942 2.419188 2.132676 1.358727 2.016414 0.160645 1.196976 -2.941991 -7.489585 -5.824275 4.017831 30.682971 -2.229550 4.097290 5.940820 -22.377956 -1.620522 2.211489 -62.946371 -1.080514 -4.160494 3.615065 -10.433487 -1.484535 -4.102833 2.854503 0.134820 0.323990 -0.262780 0.148840 19.729541 5.138669 3.957504 53.993825 1.417053 -4.228450 -7.418124 3.126783 -0.333301 2.654683 -1.396309 -0.190830 0.054570 0.055500 -0.057010 
-1.349720 17.826330 -3.359540 -11.506657 -9.111239 9.606034 -14.773604 13.754352 2.747125 0.140675 -0.858177 -9.909300 1.429599 4.091942 16.397570 -0.174007 3.692145 3.541597 -0.073640 -0.409580 0.002700 18.489418 -12.342210 1.759204 -16.985365 2.456231 -17.833407 -12.872489 -2.598125 48.402246 -0.566980 -7.191931 1.943143 -0.223330 0.501200 0.208270 -4.277438 -0.486409 -6.502843 14.947017 1.402915 3.124559 1.205419 1.193495 -0.550142 1.205907 -2.960161 -7.092233 -5.899417 4.406137 30.464163 -2.582590 4.640480 5.649320 -21.337955 0.206141 1.903602 -62.434966 -0.765651 -5.484196 3.852958 -15.900886 -2.061928 -4.096484 2.835353 0.146170 0.341390 -0.272260 0.132250 18.589474 2.995031 3.068894 54.021078 1.786040 -5.142296 -8.280287 6.452542 -0.867407 2.597511 -1.360883 -0.209500 0.066360 0.093540 -0.065460 
-1.332910 17.832140 -3.345640 -12.135643 -9.256171 10.245649 -14.762882 13.752565 2.722986 0.618390 -0.853447 -10.045595 0.736085 4.235745 15.953062 -0.222508 3.689859 3.510363 -0.027370 -0.377880 0.063270 18.529689 -12.002558 2.095896 -14.232976 3.336900 -21.521096 -11.902910 -3.002652 51.280809 -0.672499 -7.422688 1.840782 -0.208590 0.439720 0.211750 -4.358974 -0.829146 -6.728333 16.994011 0.436888 4.974955 0.315693 0.607840 -1.004247 1.388733 -3.562438 -7.029783 -7.239047 5.133970 31.665781 -2.613900 5.083900 3.513060 -20.576359 1.316117 1.649851 -61.287189 -0.912741 -6.349621 3.420728 -20.977784 -2.430069 -4.014114 2.827767 0.222550 0.287660 -0.218500 0.112850 17.273067 2.017830 2.700425 54.134765 2.325225 -6.114839 -9.100947 10.142128 -1.368309 2.541695 -1.314322 -0.208660 0.073480 0.088850 -0.099690 
-1.326060 17.846870 -3.364030 -12.541531 -10.113548 10.746476 -14.784716 13.652103 2.654242 0.797313 -0.854770 -10.424894 0.093884 4.423260 16.065879 -0.224571 3.644244 3.486083 0.078680 -0.250570 0.165100 18.562618 -11.525688 2.608135 -12.005883 4.926957 -26.238430 -9.740191 -4.191902 55.380548 -0.855755 -7.888316 1.667639 -0.161870 0.335300 0.214370 -4.379220 -1.132444 -7.025863 18.021488 -0.302955 7.485490 -0.232287 0.329641 -0.611387 1.537274 -4.111410 -7.196649 -8.436430 5.630549 32.444098 -3.216260 5.764480 0.038040 -19.370399 1.570327 1.763899 -60.449410 -1.487108 -7.470607 3.314003 -27.473692 -2.835437 -3.880430 2.862277 0.277160 0.214920 -0.126070 0.114200 15.716473 2.056860 2.527251 54.878270 3.569912 -6.982677 -9.890540 14.145117 -1.941888 2.494545 -1.301777 -0.162240 0.070960 0.026810 -0.118750 
-1.320980 17.872110 -3.387360 -12.274061 -10.853624 11.011044 -14.865366 13.553778 2.585977 0.583882 -0.880061 -10.769847 -0.498432 4.703544 16.894499 -0.241772 3.688440 3.420256 0.152960 -0.163320 0.246150 18.547905 -10.920035 3.208792 -10.667158 6.710725 -31.153757 -6.257227 -6.427315 59.072772 -1.037041 -8.445281 1.458901 -0.124340 0.233970 0.208090 -4.252400 -1.626338 -7.393792 17.549096 -1.179822 10.493347 -0.258679 -0.070306 -0.161543 1.695141 -4.496988 -7.556096 -9.392792 6.415299 33.264238 -3.841220 6.742130 -3.343130 -18.896246 1.097857 2.155832 -58.677857 -1.404645 -8.943759 2.959618 -35.435322 -3.248462 -3.743358 2.915317 0.344010 0.144530 -0.052510 0.091940 15.052610 2.745545 2.570411 54.559505 4.507508 -8.136887 -10.435754 19.517128 -2.573347 2.419896 -1.281152 -0.140430 0.064450 -0.003580 -0.153880 
